<?xml version="1.0" standalone="no"?><!DOCTYPE svg PUBLIC "-//W3C//DTD SVG 1.1//EN" "http://www.w3.org/Graphics/SVG/1.1/DTD/svg11.dtd"><svg t="1492309326031" class="icon" style="" viewBox="0 0 1024 1024" version="1.1" xmlns="http://www.w3.org/2000/svg" p-id="2744" xmlns:xlink="http://www.w3.org/1999/xlink" width="32" height="32"><defs><style type="text/css"></style></defs><path d="M590.114079 280.57828c57.349149 0 103.890138-46.540989 103.890138-103.890138S647.462205 72.798003 590.114079 72.798003c-57.349149 0-103.890138 46.540989-103.890138 103.890138S532.667715 280.57828 590.114079 280.57828z" p-id="2745" fill="#13227a"></path><path d="M675.115008 469.566562c37.681204-30.476105 192.882985-134.7551 188.988282-151.209864-3.894703-16.454764-192.494129 9.931187-226.863914 18.889209-34.272571 8.958022-100.482529 23.562649-113.432469 0-12.94994-23.562649-42.7435-31.741935-56.667627-18.889209 0 0-109.634979 124.434034-226.863914 170.099073C187.308013 509.097904 142.908804 519.126304 142.908804 519.126304s53.260018 59.296501 154.131403 44.886303c100.774171-14.410198 188.988282-75.654051 188.988282-75.654051S311.255976 764.003478 278.053784 809.668517c-33.104979 45.665039-34.662451 84.612073 0 75.654051 34.662451-9.055237 204.469881-168.638815 226.863914-188.988282 42.354644-38.654368 151.210887 0 151.210887 0s52.870138 42.451858 37.778418 113.432469c-13.82589 64.943105-3.40761 113.918539 18.889209 94.54326 22.296819-19.376303 132.904962-220.730217 94.54326-302.420751-38.45994-81.787748-118.008694-28.431539-132.321678-37.778418C660.899238 554.665729 637.433804 500.042667 675.115008 469.566562z" p-id="2746" fill="#13227a"></path></svg>